<svg xmlns="http://www.w3.org/2000/svg" viewBox="0 0 168.59 82.72"><defs><style>.cls-1{fill:#393b36;}.cls-2{fill:#1d1d1b;}.cls-3{fill:#f9fafb;}</style></defs><g id="Calque_2" data-name="Calque 2"><g id="Calque_1-2" data-name="Calque 1"><rect class="cls-1" x="0.5" y="0.47" width="167.59" height="81.79" rx="13.44"/><path class="cls-2" d="M154.65,82.72H13.94C6.25,82.72,0,76.9,0,69.74V13C0,5.82,6.25,0,13.94,0H154.65c7.68,0,13.94,5.82,13.94,13V69.74C168.59,76.9,162.33,82.72,154.65,82.72ZM13.94.93C6.8.93,1,6.34,1,13V69.74c0,6.64,5.8,12.05,12.94,12.05H154.65c7.13,0,12.94-5.41,12.94-12.05V13c0-6.64-5.81-12-12.94-12Z"/><path class="cls-3" d="M51.66,58.88a8.42,8.42,0,0,1-1.38.32,11.71,11.71,0,0,1-2,.15,5.56,5.56,0,0,1-3-.65,2.45,2.45,0,0,1-1-2.22V36.85A3.89,3.89,0,0,1,45,34.43a6.94,6.94,0,0,1,2.27-1.77,21.54,21.54,0,0,1,5.24-1.79,31.79,31.79,0,0,1,7-.72q6.23,0,6.23,3a3.23,3.23,0,0,1-.28,1.35,5.88,5.88,0,0,1-.64,1.11q-.7-.12-1.77-.24a20.22,20.22,0,0,0-2.27-.12,25.06,25.06,0,0,0-5.17.5,18.22,18.22,0,0,0-4,1.29Z"/><path class="cls-3" d="M70.31,58.55a5.55,5.55,0,0,1-3-.66,2.47,2.47,0,0,1-1-2.22V19.35l1.41-.3a10.44,10.44,0,0,1,2-.18,5.58,5.58,0,0,1,3,.66,2.45,2.45,0,0,1,1,2.21V58.07a11.05,11.05,0,0,1-1.45.33A11.71,11.71,0,0,1,70.31,58.55Z"/><path class="cls-3" d="M99.46,50a7.09,7.09,0,0,1-3.54,6.28q-3.54,2.28-10.27,2.28a33.63,33.63,0,0,1-5.1-.36,18.75,18.75,0,0,1-4-1A7.68,7.68,0,0,1,74,55.61a2.66,2.66,0,0,1-.92-2A3,3,0,0,1,73.58,52,3.86,3.86,0,0,1,75,50.71a32.2,32.2,0,0,0,4.53,2,17.9,17.9,0,0,0,6,.9,10.38,10.38,0,0,0,4.89-.93,3,3,0,0,0,.53-5.06,8.75,8.75,0,0,0-3.44-1.37l-4.81-1.08a17.35,17.35,0,0,1-7.08-2.93,6.23,6.23,0,0,1-2.27-5.09,6.56,6.56,0,0,1,.85-3.26,7.56,7.56,0,0,1,2.51-2.63,13.33,13.33,0,0,1,4.15-1.74,23,23,0,0,1,5.66-.63,29.85,29.85,0,0,1,4.64.33,18.63,18.63,0,0,1,3.61.9,6.67,6.67,0,0,1,2.38,1.41A2.48,2.48,0,0,1,98,33.29a2.75,2.75,0,0,1-.49,1.65A3.59,3.59,0,0,1,96.2,36a24.78,24.78,0,0,0-3.78-1.43A18.26,18.26,0,0,0,87,33.83a10.44,10.44,0,0,0-4.68.87,2.65,2.65,0,0,0-1.69,2.42,2.43,2.43,0,0,0,1,2,8.11,8.11,0,0,0,3.29,1.25l4.11.9q5.38,1.2,7.93,3.23A6.68,6.68,0,0,1,99.46,50Z"/><path class="cls-3" d="M113,28.83q6.58,0,10.48,2.43t3.89,7.63V52.83a2.88,2.88,0,0,1-.74,2.13,8.17,8.17,0,0,1-2,1.4,22.26,22.26,0,0,1-4.74,1.56,30.62,30.62,0,0,1-6.73.66q-6.87,0-10.73-2.28a7.32,7.32,0,0,1-3.86-6.7,6.92,6.92,0,0,1,3-6.05q3-2.09,8.68-2.57l9.84-.84V38.83a4.1,4.1,0,0,0-2-3.83,11,11,0,0,0-5.63-1.2,22.23,22.23,0,0,0-5.45.66A35.81,35.81,0,0,0,102.32,36a4.46,4.46,0,0,1-1.21-1.16,2.57,2.57,0,0,1-.5-1.53,2.41,2.41,0,0,1,.61-1.68,4.87,4.87,0,0,1,1.87-1.13,19,19,0,0,1,4.54-1.23A35.55,35.55,0,0,1,113,28.83Zm.14,24.84a19.64,19.64,0,0,0,4.32-.42,9.28,9.28,0,0,0,2.62-.9v-7.6l-7.72.66a12.52,12.52,0,0,0-4.89,1.23,3.05,3.05,0,0,0-1.62,2.84,3.45,3.45,0,0,0,1.77,3.08A10.66,10.66,0,0,0,113.15,53.67Z"/></g></g></svg>